<svg width="14" height="14" viewBox="0 0 14 14" fill="none" xmlns="http://www.w3.org/2000/svg">
<g clip-path="url(#clip0_304_18067)">
<path d="M7 0.875183C3.61758 0.875183 0.875 3.61776 0.875 7.00018C0.875 10.3826 3.61758 13.1252 7 13.1252C10.3824 13.1252 13.125 10.3826 13.125 7.00018C13.125 3.61776 10.3824 0.875183 7 0.875183ZM9.26133 9.32714L8.35898 9.32304L7 7.70292L5.64238 9.32167L4.73867 9.32577C4.67852 9.32577 4.6293 9.27792 4.6293 9.21639C4.6293 9.19042 4.63887 9.16581 4.65527 9.1453L6.43398 7.02616L4.65527 4.90839C4.63875 4.88835 4.62959 4.86326 4.6293 4.83729C4.6293 4.77714 4.67852 4.72792 4.73867 4.72792L5.64238 4.73202L7 6.35214L8.35762 4.73339L9.25996 4.72928C9.32012 4.72928 9.36934 4.77714 9.36934 4.83866C9.36934 4.86464 9.35977 4.88925 9.34336 4.90975L7.56738 7.02753L9.34473 9.14667C9.36113 9.16718 9.3707 9.19178 9.3707 9.21776C9.3707 9.27792 9.32148 9.32714 9.26133 9.32714Z" fill="#1890FF"/>
</g>
<defs>
<clipPath id="clip0_304_18067">
<rect width="14" height="14" fill="white"/>
</clipPath>
</defs>
</svg>
